<?xml version="1.0" encoding="UTF-8" standalone="no"?>
<!-- Created with Inkscape (http://www.inkscape.org/) -->

<svg
   width="512"
   height="512"
   viewBox="0 0 135.46666 135.46667"
   version="1.1"
   id="svg5"
   inkscape:version="1.2.1 (9c6d41e410, 2022-07-14, custom)"
   sodipodi:docname="logo.svg"
   xmlns:inkscape="http://www.inkscape.org/namespaces/inkscape"
   xmlns:sodipodi="http://sodipodi.sourceforge.net/DTD/sodipodi-0.dtd"
   xmlns="http://www.w3.org/2000/svg"
   xmlns:svg="http://www.w3.org/2000/svg">
  <sodipodi:namedview
     id="namedview7"
     pagecolor="#ffffff"
     bordercolor="#000000"
     borderopacity="0.25"
     inkscape:showpageshadow="2"
     inkscape:pageopacity="0.0"
     inkscape:pagecheckerboard="0"
     inkscape:deskcolor="#d1d1d1"
     inkscape:document-units="mm"
     showgrid="false"
     showborder="false"
     inkscape:zoom="1.1213335"
     inkscape:cx="324.16761"
     inkscape:cy="256.83706"
     inkscape:window-width="1920"
     inkscape:window-height="1053"
     inkscape:window-x="1920"
     inkscape:window-y="0"
     inkscape:window-maximized="1"
     inkscape:current-layer="layer1" />
  <defs
     id="defs2">
    <inkscape:path-effect
       effect="skeletal"
       id="path-effect5709"
       is_visible="true"
       lpeversion="1"
       pattern="m 26.547926,69.942932 h -2.984547 -2.984547 l 1.492274,-2.584694 1.492273,-2.584693 1.492274,2.584693 z"
       copytype="repeated"
       prop_scale="1"
       scale_y_rel="false"
       spacing="7"
       normal_offset="-0.1"
       tang_offset="1"
       prop_units="false"
       vertical_pattern="false"
       hide_knot="false"
       fuse_tolerance="0" />
    <inkscape:perspective
       sodipodi:type="inkscape:persp3d"
       inkscape:vp_x="0 : -13.033324 : 1"
       inkscape:vp_y="0 : 1000 : 0"
       inkscape:vp_z="209.99999 : -13.033324 : 1"
       inkscape:persp3d-origin="105 : -62.533329 : 1"
       id="perspective4957" />
  </defs>
  <g
     inkscape:label="Layer 1"
     inkscape:groupmode="layer"
     id="layer1">
    <path
       id="path328"
       style="fill:#fab600;fill-opacity:1;stroke-width:0.738863"
       d="M 114.07472,67.733353 A 46.341396,46.341396 0 0 1 67.73333,114.07472 46.341396,46.341396 0 0 1 21.391942,67.733353 46.341396,46.341396 0 0 1 67.73333,21.391946 46.341396,46.341396 0 0 1 114.07472,67.733353 Z" />
    <path
       id="path4981"
       style="fill:#fab600;fill-opacity:1;stroke-width:0.340517"
       d="m 52.252785,81.281871 c 0.308173,-0.808897 0.55534,-1.63612 0.73474,-2.474906 0.179401,-0.838787 0.291035,-1.689137 0.328141,-2.544289 0.837615,0.474752 1.647565,1.017723 2.426302,1.623674 0.778737,0.605951 1.526261,1.274883 2.239026,2.001559 -0.951724,0.366361 -1.908429,0.663341 -2.864876,0.894486 -0.956447,0.231145 -1.912637,0.396454 -2.863333,0.499476 z m -6.918386,8.952056 c 0.710676,-0.521954 1.38973,-1.091615 2.030399,-1.702223 0.64067,-0.610608 1.242955,-1.262162 1.800095,-1.947901 0.388513,0.882777 0.731261,1.80098 1.024695,2.749373 0.293434,0.948392 0.537555,1.926973 0.728817,2.930507 -0.993274,-0.240459 -1.958736,-0.532199 -2.891149,-0.871674 -0.932414,-0.339475 -1.831778,-0.726685 -2.692857,-1.158082 z m -10.501032,3.55051 c 0.03762,-3.01e-4 0.07525,-7.5e-4 0.112884,-0.0013 0.819978,0.013 1.637637,-0.0442 2.447068,-0.165697 0.846579,-0.127071 1.684157,-0.32447 2.505972,-0.585437 -0.154057,0.941975 -0.37198,1.886585 -0.657316,2.828592 -0.285336,0.942006 -0.638086,1.881411 -1.061795,2.812976 -0.685997,-0.753812 -1.311391,-1.540804 -1.870943,-2.357431 -0.510445,-0.744958 -0.966099,-1.514576 -1.362986,-2.306163 -0.03818,-0.07507 -0.07581,-0.150236 -0.112884,-0.225493 z M 24.371726,90.095405 c 0.705073,0.530276 1.442362,1.013436 2.205105,1.442721 0.762743,0.429284 1.55094,0.804692 2.357829,1.119461 -0.711114,0.636958 -1.474944,1.237692 -2.286254,1.798658 -0.811309,0.560965 -1.670098,1.082161 -2.571128,1.560041 -0.06785,-1.01484 -0.07487,-2.019158 -0.02461,-3.007717 0.05026,-0.98856 0.157792,-1.96136 0.319059,-2.913164 z m -6.811733,-9.026926 c 0.297412,0.812062 0.656423,1.606391 1.07027,2.376227 0.413847,0.769836 0.882531,1.515177 1.399289,2.229263 -0.954236,0.14367 -1.928396,0.233017 -2.917244,0.264494 -0.988847,0.03148 -1.992382,0.0051 -3.005367,-0.08272 0.494789,-0.891487 1.032302,-1.73966 1.608992,-2.539282 0.576691,-0.799622 1.19256,-1.550693 1.84406,-2.247977 z M 17.431025,70.099575 c -0.278883,0.817202 -0.49516,1.651127 -0.642067,2.495013 -0.146908,0.843887 -0.224447,1.697735 -0.225855,2.554784 -0.859416,-0.442476 -1.692154,-0.954957 -2.494666,-1.532208 -0.802511,-0.57725 -1.574797,-1.219269 -2.313311,-1.92082 0.93943,-0.402136 1.885628,-0.733904 2.833357,-0.99885 0.947729,-0.264946 1.896989,-0.46307 2.842542,-0.597919 z m 6.627329,-9.151073 c -0.695311,0.544182 -1.357398,1.13447 -1.979498,1.764102 -0.622101,0.629632 -1.204215,1.298608 -1.739581,2.000167 -0.415411,-0.869521 -0.786042,-1.776255 -1.108348,-2.714967 -0.322305,-0.938712 -0.596285,-1.909401 -0.818391,-2.90683 1,0.20978 1.973976,0.471829 2.916691,0.782599 0.942716,0.31077 1.85417,0.670262 2.729127,1.074929 z M 34.449873,57.02104 c -0.85638,0.0158 -1.708918,0.107095 -2.550852,0.267114 -0.841934,0.160018 -1.673265,0.388764 -2.48723,0.679474 0.122063,-0.947738 0.307005,-1.8999 0.558374,-2.851247 0.251368,-0.951346 0.569163,-1.901878 0.956931,-2.846359 0.711743,0.72823 1.364671,1.490627 1.953546,2.283645 0.588875,0.793019 1.113698,1.616659 1.569231,2.467373 z m 10.564385,3.318115 c -0.71996,-0.507569 -1.470534,-0.966421 -2.244959,-1.369795 -0.774426,-0.403373 -1.572704,-0.751268 -2.388071,-1.036923 0.687829,-0.661168 1.430162,-1.287099 2.221762,-1.874249 0.7916,-0.587149 1.632467,-1.135516 2.517364,-1.641554 0.101213,1.011537 0.140613,2.014341 0.121748,3.003173 -0.01887,0.988833 -0.096,1.963695 -0.227844,2.919348 z m 7.096559,8.821677 c -0.326223,-0.803279 -0.712442,-1.587224 -1.151896,-2.345073 -0.439453,-0.757848 -0.932141,-1.489601 -1.471302,-2.188496 0.949971,-0.172977 1.921654,-0.292617 2.909813,-0.355374 0.988158,-0.06276 1.992792,-0.06863 3.008664,-0.01408 -0.466519,0.907204 -0.976749,1.772883 -1.527144,2.591799 -0.550396,0.818916 -1.140957,1.591069 -1.768135,2.311222 z"
       inkscape:path-effect="#path-effect5709"
       inkscape:original-d="M 55.812302,75.401733 A 20.866051,20.866051 0 0 1 34.946251,96.267784 20.866051,20.866051 0 0 1 14.0802,75.401733 20.866051,20.866051 0 0 1 34.946251,54.535683 20.866051,20.866051 0 0 1 55.812302,75.401733 Z"
       class="UnoptimicedTransforms"
       transform="matrix(2.7925554,0,0,2.7925554,-29.637656,-143.02577)" />
    <g
       aria-label="TSE"
       transform="matrix(0.971518,0,0,1.029317,4.2779633e-7,2.3562942)"
       id="text5955"
       style="font-size:36.4417px;font-family:P052;-inkscape-font-specification:'P052, Normal';fill:#f7d610;stroke-width:3.03679"
       inkscape:transform-center-x="0.80513998"
       inkscape:transform-center-y="-6.2603713">
      <path
         d="m 44.136985,67.05757 v 1.093251 c 2.15006,-0.07288 3.425519,-0.109325 5.320488,-0.109325 1.894968,0 3.206869,0.03644 5.35693,0.109325 V 67.05757 l -1.749202,-0.109325 c -1.676318,-0.07288 -1.822085,-0.364417 -1.858527,-3.279753 V 48.253653 c 0,-1.858527 0.03644,-2.587361 0.145767,-3.64417 h 5.648464 c 1.056809,0.03644 1.384784,0.291534 1.457668,1.202576 l 0.145766,2.878895 h 1.129693 c 0,-2.368711 0.07288,-3.789937 0.255092,-5.867114 l -4.846746,0.07288 c -2.077177,0.03644 -2.441594,0.03644 -3.024661,0.03644 h -5.757789 c -0.4373,0 -2.36871,-0.03644 -4.919629,-0.07288 l -2.478036,-0.03644 c 0.182209,2.077177 0.255092,3.498403 0.255092,5.867114 h 1.129693 l 0.145767,-2.878895 c 0.07288,-0.911042 0.364417,-1.166134 1.457668,-1.202576 h 5.648463 c 0.109325,1.129693 0.145767,1.967852 0.145767,3.64417 v 15.414839 c -0.03644,2.951778 -0.182209,3.20687 -1.858527,3.279753 z"
         style="fill:#ffffff"
         id="path276" />
      <path
         d="m 76.788789,48.873162 c 0,-1.967852 0.145767,-3.243311 0.510184,-5.13828 -2.915336,-1.166134 -4.518771,-1.530551 -6.559506,-1.530551 -5.429813,0 -9.365517,3.42552 -9.365517,8.199382 0,1.822085 0.473742,3.097545 1.530552,4.081471 1.239018,1.129693 2.915336,1.71276 6.450181,2.186502 2.769569,0.400859 4.045028,0.801717 5.028954,1.639876 0.947484,0.765276 1.384785,1.822085 1.384785,3.20687 0,3.279753 -2.733128,5.648463 -6.559506,5.648463 -2.878894,0 -5.721347,-1.384784 -5.903556,-2.915336 l -0.291533,-2.441593 h -1.166135 c 0,2.80601 -0.03644,3.972145 -0.255091,5.57558 2.077176,0.947484 4.154353,1.384784 6.304414,1.384784 6.340855,0 10.93251,-3.826378 10.93251,-9.110425 0,-2.514477 -0.983926,-4.008587 -3.352637,-4.992513 -1.129692,-0.473742 -2.077177,-0.692392 -5.028954,-1.093251 -4.445888,-0.583067 -6.012881,-1.785643 -6.012881,-4.591654 0,-3.061103 2.295827,-5.247605 5.502697,-5.247605 1.421226,0 2.769569,0.291534 3.753495,0.838159 1.202576,0.619509 1.603435,1.166135 1.71276,2.222944 l 0.21865,2.077177 z"
         style="fill:#ffffff"
         id="path278" />
      <path
         d="m 80.870243,67.05757 v 1.093251 c 2.368711,-0.07288 3.461962,-0.109325 4.518771,-0.109325 0.583067,0 1.384785,0 2.550919,0.03644 2.769569,0.03644 4.773863,0.07288 5.867114,0.07288 1.239018,0 2.733127,-0.03644 6.085764,-0.109325 0,-2.113618 0.218649,-4.08147 0.583069,-5.976439 h -1.275462 c -0.182208,1.202577 -0.291533,1.967852 -0.400858,2.295828 -0.255092,1.020367 -0.583067,1.639876 -0.911043,1.785643 -0.546625,0.291533 -3.316194,0.473742 -6.851039,0.473742 -1.894969,0 -2.478036,-0.03644 -3.534845,-0.291534 V 56.12506 c 0.947484,-0.07288 1.967852,-0.109325 3.753495,-0.109325 2.696686,0 3.680612,0.109325 4.336562,0.437301 l 0.291534,0.911042 0.182208,2.15006 h 1.093251 c -0.07288,-2.405152 -0.109325,-3.279753 -0.109325,-4.045028 0,-0.728834 0.03644,-1.822085 0.109325,-4.227237 h -1.093251 l -0.182208,1.894968 c -0.03644,0.327975 -0.109325,0.655951 -0.291534,0.947484 -0.65595,0.291534 -1.676318,0.400859 -4.08147,0.400859 -1.749202,0 -2.733128,-0.03644 -4.008587,-0.109325 v -9.729934 c 1.129692,-0.255092 1.858526,-0.291534 4.336562,-0.291534 1.93141,0 4.08147,0.21865 5.211163,0.510184 0.874601,0.21865 0.983926,0.400859 0.983926,1.239018 v 2.36871 h 1.27546 c 0,-2.186502 0.182208,-3.935703 0.583067,-5.539138 -1.749202,-0.07288 -2.842453,-0.109325 -4.518771,-0.109325 -0.947484,0 -2.15006,0 -3.607728,0.03644 -2.368711,0.03644 -4.045029,0.07288 -4.846746,0.07288 -1.49411,0 -3.024662,-0.03644 -6.486623,-0.109325 v 1.093251 l 1.749202,0.109325 c 1.676318,0.109325 1.822085,0.327975 1.858526,3.279753 v 16.362323 c -0.03644,2.951778 -0.145767,3.133986 -1.858526,3.279753 z"
         style="fill:#ffffff"
         id="path280" />
    </g>
    <g
       aria-label="Unofficial"
       id="text6111"
       style="font-size:36.4417px;font-family:P052;-inkscape-font-specification:'P052, Normal';fill:#ffffff;stroke-width:0.738863"
       transform="translate(1.3333333e-6,4.839192)">
      <path
         d="m 48.707134,77.70456 v -0.413763 c -0.896487,0.02758 -1.337834,0.04138 -1.64126,0.04138 -0.289634,0 -0.662021,-0.01379 -1.613676,-0.04138 v 0.413763 l 0.606852,0.04138 c 0.648229,0.05517 0.689605,0.124128 0.703398,1.241289 v 4.413472 c 0,1.944686 -0.937863,2.854964 -2.937718,2.854964 -1.917102,0 -2.744628,-0.758565 -2.744628,-2.523954 v -4.744482 c 0.01379,-1.103368 0.06896,-1.213705 0.703397,-1.241289 l 0.662021,-0.04138 v -0.413763 c -0.827526,0.02758 -1.324041,0.04138 -2.027438,0.04138 -0.689605,0 -1.186121,-0.01379 -2.013647,-0.04138 v 0.413763 l 0.662021,0.04138 c 0.634436,0.04138 0.689605,0.124128 0.703397,1.241289 v 4.896195 c 0,1.075784 0.248258,1.834349 0.772357,2.372241 0.551684,0.565476 1.530924,0.85511 2.910134,0.85511 1.420586,0 2.372241,-0.289634 2.992885,-0.910278 0.648229,-0.662021 0.951655,-1.696428 0.951655,-3.227352 v -3.985916 c 0.01379,-1.117161 0.05517,-1.186121 0.703397,-1.241289 z"
         style="font-size:13.7921px"
         id="path283" />
      <path
         d="m 54.155006,86.876307 c 0.634437,-0.02758 0.85511,-0.04138 1.089576,-0.04138 0.206881,0 0.455139,0.01379 1.144744,0.04138 v -0.413763 l -0.565476,-0.04138 c -0.482723,-0.04138 -0.496515,-0.09654 -0.510308,-0.993031 v -2.661875 c 0,-1.613676 -0.758565,-2.399825 -2.30328,-2.399825 -0.510308,0 -0.799942,0.08275 -1.089576,0.344802 l -1.0482,0.910279 v -1.199913 l -0.124129,-0.05517 c -0.675813,0.289634 -1.434378,0.482723 -2.151567,0.565476 v 0.386178 h 0.510307 c 0.565477,0.01379 0.593061,0.06896 0.606853,1.006824 v 3.103222 c 0,0.896487 -0.04138,0.951655 -0.510308,0.993031 l -0.620644,0.04138 v 0.413763 c 0.882694,-0.02758 1.268873,-0.04138 1.71022,-0.04138 0.441347,0 0.827526,0.01379 1.71022,0.04138 v -0.413763 l -0.620644,-0.04138 c -0.482724,-0.04138 -0.510308,-0.09654 -0.510308,-0.993031 v -2.923925 c 0,-0.620644 0.910279,-1.296457 1.751597,-1.296457 0.924071,0 1.530923,0.689605 1.530923,1.751596 z"
         style="font-size:13.7921px"
         id="path285" />
      <path
         d="m 60.375252,80.366436 c -2.013647,0 -3.406649,1.420586 -3.406649,3.475609 0,1.944686 1.213705,3.268727 3.006678,3.268727 2.123983,0 3.641114,-1.475754 3.641114,-3.544569 0,-1.875726 -1.351625,-3.199767 -3.241143,-3.199767 z m -0.248258,0.455139 c 1.282665,0 2.206736,1.37921 2.206736,3.254935 0,1.599884 -0.689605,2.579123 -1.820557,2.579123 -1.351626,0 -2.261904,-1.324041 -2.261904,-3.28252 0,-1.655052 0.66202,-2.551538 1.875725,-2.551538 z"
         style="font-size:13.7921px"
         id="path287" />
      <path
         d="m 68.747051,76.945995 c -0.275842,-0.110337 -0.441347,-0.151713 -0.648228,-0.151713 -0.427555,0 -0.896487,0.220673 -1.213705,0.579268 l -0.799942,0.910278 c -0.399971,0.45514 -0.565476,1.020616 -0.579268,1.986063 v 0.579268 l -0.951655,0.427555 v 0.303426 l 0.951655,-0.05517 v 3.903164 c 0,0.896487 -0.04138,0.951655 -0.510308,0.993031 l -0.634436,0.04138 v 0.413763 c 0.965447,-0.02758 1.365417,-0.04138 1.724012,-0.04138 0.358595,0 0.758566,0.01379 1.724013,0.04138 v -0.413763 l -0.634437,-0.04138 c -0.482724,-0.05517 -0.496516,-0.08275 -0.510308,-0.993031 V 81.52497 h 1.710221 l 0.09654,-0.730981 -1.806765,0.05517 v -1.172328 c 0,-1.599884 0.179298,-1.972271 0.965447,-1.972271 0.372387,0 0.620645,0.09655 0.951655,0.386179 l 0.165505,-0.08275 z m 4.082462,0 c -0.275842,-0.110337 -0.441347,-0.151713 -0.634437,-0.151713 -0.441347,0 -0.910278,0.220673 -1.227497,0.579268 l -0.799941,0.910278 c -0.399971,0.45514 -0.565476,1.020616 -0.579269,1.986063 v 0.579268 l -0.951654,0.427555 v 0.303426 l 0.951654,-0.05517 v 3.903164 c -0.01379,0.896487 -0.04138,0.951655 -0.510307,0.993031 l -0.634437,0.04138 v 0.413763 c 0.965447,-0.02758 1.365418,-0.04138 1.737805,-0.04138 0.372386,0 0.799942,0.01379 1.792973,0.04138 v -0.413763 l -0.717189,-0.04138 c -0.482724,-0.05517 -0.496516,-0.09654 -0.510308,-0.993031 V 81.52497 h 1.572299 l 0.09655,-0.730981 -1.668844,0.05517 v -1.172328 c 0,-1.599884 0.179297,-1.972271 0.965447,-1.972271 0.372387,0 0.620644,0.09655 0.951655,0.386179 l 0.165505,-0.08275 z m 2.055023,3.516985 -0.124129,-0.09654 c -0.606852,0.303426 -1.365418,0.510307 -2.151568,0.59306 v 0.386179 h 0.510308 c 0.565476,0.01379 0.59306,0.06896 0.606852,1.006823 v 3.075638 c 0,0.896487 -0.04138,0.951655 -0.510307,0.993031 l -0.634437,0.04138 v 0.413763 c 0.965447,-0.02758 1.365418,-0.04138 1.724013,-0.04138 0.358594,0 0.758565,0.01379 1.724012,0.04138 v -0.413763 l -0.634436,-0.04138 c -0.482724,-0.05517 -0.496516,-0.08275 -0.510308,-0.993031 z m -0.510308,-3.103222 c -0.413763,0 -0.772357,0.358594 -0.772357,0.772357 0,0.399971 0.358594,0.758566 0.758565,0.758566 0.399971,0 0.772358,-0.358595 0.772358,-0.758566 0,-0.386178 -0.372387,-0.772357 -0.758566,-0.772357 z"
         style="font-size:13.7921px"
         id="path289" />
      <path
         d="m 81.794365,82.545587 c 0,-0.634436 0.06896,-1.199912 0.193089,-1.696428 -0.551684,-0.33101 -1.034407,-0.482723 -1.599883,-0.482723 -0.675813,0 -1.434379,0.262049 -2.261905,0.786149 -0.965447,0.606853 -1.475754,1.558508 -1.475754,2.786004 0,1.861934 1.296457,3.172183 3.15839,3.172183 0.71719,0 1.751597,-0.262049 1.889518,-0.468931 l 0.289634,-0.441347 -0.137921,-0.206882 c -0.5241,0.275842 -0.951655,0.399971 -1.44817,0.399971 -1.530923,0 -2.537747,-1.18612 -2.537747,-3.006678 0,-1.475754 0.689605,-2.30328 1.930894,-2.30328 0.620645,0 1.268874,0.26205 1.517131,0.620644 l 0.09655,0.841318 z"
         style="font-size:13.7921px"
         id="path291" />
      <path
         d="m 85.007927,80.421604 -0.124129,-0.05517 c -0.675813,0.289634 -1.434378,0.482723 -2.151567,0.565476 v 0.386178 h 0.510307 c 0.565476,0.01379 0.593061,0.06896 0.606853,1.006824 v 3.103222 c 0,0.896487 -0.04138,0.951655 -0.510308,0.993031 l -0.634437,0.04138 v 0.413763 c 0.965447,-0.02758 1.365418,-0.04138 1.724013,-0.04138 0.358595,0 0.758565,0.01379 1.724012,0.04138 v -0.413763 l -0.634436,-0.04138 c -0.482724,-0.05517 -0.496516,-0.08275 -0.510308,-0.993031 z m -0.634436,-3.061846 c -0.413763,0 -0.772358,0.358594 -0.772358,0.772357 0,0.399971 0.358595,0.758566 0.758565,0.758566 0.399971,0 0.772358,-0.358595 0.772358,-0.758566 0,-0.386178 -0.372387,-0.772357 -0.758565,-0.772357 z"
         style="font-size:13.7921px"
         id="path293" />
      <path
         d="m 90.897161,85.703978 -0.06896,1.172329 c 0.675813,-0.02758 0.882694,-0.04138 1.075784,-0.04138 0.179297,0 0.26205,0 0.730981,0.02759 l 0.289634,0.01379 v -0.413763 l -0.537892,-0.02758 c -0.358594,-0.04138 -0.372386,-0.08275 -0.386178,-0.799942 v -2.523955 c 0,-2.013646 -0.579269,-2.744627 -2.179152,-2.744627 -0.606853,0 -1.144745,0.151713 -1.668844,0.468931 l -0.730982,0.441347 v 0.896487 l 0.358595,0.09654 0.179297,-0.427555 c 0.289634,-0.648228 0.427555,-0.744773 1.061992,-0.744773 1.296457,0 1.834349,0.510308 1.875726,1.765389 l -1.365418,0.248257 c -1.875726,0.344803 -2.661876,0.993032 -2.661876,2.206736 0,1.061992 0.634437,1.682637 1.737805,1.682637 0.26205,0 0.482723,-0.04138 0.579268,-0.110337 z m 0,-0.579268 c -0.399971,0.565476 -1.268874,1.089576 -1.806766,1.089576 -0.565476,0 -1.034407,-0.496516 -1.034407,-1.103368 0,-0.510308 0.275842,-0.993031 0.675813,-1.255081 0.358594,-0.206882 1.11716,-0.399971 2.16536,-0.551684 z"
         style="font-size:13.7921px"
         id="path295" />
      <path
         d="m 93.614204,86.462544 v 0.413763 c 0.965447,-0.02758 1.365418,-0.04138 1.724012,-0.04138 0.358595,0 0.758566,0.01379 1.724013,0.04138 v -0.413763 l -0.634437,-0.04138 c -0.482723,-0.05517 -0.496515,-0.08275 -0.510308,-0.993031 V 76.9322 l -0.124128,-0.110337 c -0.606853,0.234466 -1.061992,0.344802 -2.151568,0.510308 v 0.386178 h 0.772358 c 0.248257,0 0.344802,0.151713 0.344802,0.565476 v 7.144308 c -0.01379,0.896487 -0.02758,0.951655 -0.510308,0.993031 z"
         style="font-size:13.7921px"
         id="path297" />
    </g>
  </g>
</svg>
